<?xml version="1.0" encoding="UTF-8" standalone="no"?>
<!DOCTYPE svg PUBLIC "-//W3C//DTD SVG 1.1//EN"
"http://www.w3.org/Graphics/SVG/1.1/DTD/svg11.dtd">
<svg viewBox="0 0 935 1210" version="1.1" xmlns="http://www.w3.org/2000/svg" xmlns:xlink="http://www.w3.org/1999/xlink">
<defs>
<clipPath id="c0_3"><path d="M45.8,496.1V189.2H897.5V496.1Z"/></clipPath>
<clipPath id="c1_3"><path d="M0,1210V0H935V1210Z"/></clipPath>
<style type="text/css"><![CDATA[
.g0_3{
fill: #000;
}
.g1_3{
fill: #FFF;
}
]]></style>
</defs>
<image preserveAspectRatio="none" x="0" y="0" width="935" height="1210" xlink:href="img/1.jpg"/>
<image preserveAspectRatio="none" x="48" y="596" width="850" height="285" xlink:href="img/2.jpg"/>
<image clip-path="url(#c0_3)" preserveAspectRatio="none" x="46" y="189" width="852" height="307" xlink:href="img/3.jpg"/>
<g clip-path="url(#c1_3)" opacity="0.8" style="mix-blend-mode: multiply;">
<image x="45" y="937" width="65" height="65" xlink:href="shade/1.png"/>
</g>
<path d="M91,955.6C91,968,81,978,68.7,978C56.3,978,46.3,968,46.3,955.6c0,-12.3,10,-22.3,22.4,-22.3c12.3,0,22.3,10,22.3,22.3Z" class="g0_3"/>
<path d="M80.3,955.9L76,960.1H71.7L68,963.9v-3.8H63.2V944.2H80.3ZM62.2,942.1l-5.3,5.3v19.1h6.3v5.3l5.4,-5.3h4.2L82.4,957V942.1Z" class="g1_3"/>
<path d="M74.9,947.9h2.2v6.4H74.9v-6.4Z" class="g1_3"/>
<path d="M69.1,947.9h2.1v6.4H69.1v-6.4Z" class="g1_3"/>
<g clip-path="url(#c1_3)" opacity="0.8" style="mix-blend-mode: multiply;">
<image x="45" y="125" width="65" height="65" xlink:href="shade/2.png"/>
</g>
<path d="M91,143.5c0,12.3,-10,22.3,-22.3,22.3c-12.4,0,-22.4,-10,-22.4,-22.3c0,-12.4,10,-22.4,22.4,-22.4c12.3,0,22.3,10,22.3,22.4Z" class="g0_3"/>
<path d="M80.3,140.9c-.3,0,-.5,0,-.7,0c-2.5,0,-4.9,-1.2,-6.3,-3.3V149c0,4.7,-3.8,8.5,-8.5,8.5c-4.6,0,-8.5,-3.8,-8.5,-8.5c0,-4.6,3.9,-8.4,8.5,-8.4c.2,0,.4,0,.6,0v4.2c-.2,-.1,-.4,-.1,-.6,-.1c-2.4,0,-4.3,2,-4.3,4.4c0,2.3,1.9,4.3,4.3,4.3c2.4,0,4.6,-1.9,4.6,-4.3V129.6h4c.4,3.6,3.3,6.4,6.9,6.6v4.7Z" class="g1_3"/>
<g clip-path="url(#c1_3)" opacity="0.8" style="mix-blend-mode: multiply;">
<image x="45" y="531" width="65" height="65" xlink:href="shade/3.png"/>
</g>
<path d="M91,549.7C91,562,81,572,68.7,572C56.3,572,46.3,562,46.3,549.7c0,-12.4,10,-22.4,22.4,-22.4c12.3,0,22.3,10,22.3,22.4Z" class="g0_3"/>
<path d="M80.3,547.1c-.3,0,-.5,0,-.7,0c-2.5,0,-4.9,-1.2,-6.3,-3.3v11.5c0,4.7,-3.8,8.5,-8.5,8.5c-4.6,0,-8.5,-3.8,-8.5,-8.5c0,-4.7,3.9,-8.5,8.5,-8.5c.2,0,.4,0,.6,0V551c-.2,0,-.4,-.1,-.6,-.1c-2.4,0,-4.3,2,-4.3,4.4c0,2.4,1.9,4.3,4.3,4.3c2.4,0,4.6,-1.9,4.6,-4.3V535.8h4c.4,3.6,3.3,6.4,6.9,6.7v4.6Z" class="g1_3"/>
<image preserveAspectRatio="none" x="266" y="933" width="379" height="229" xlink:href="img/4.jpg"/>
</svg>