<?xml version="1.0" encoding="UTF-8" standalone="no"?>
<!DOCTYPE svg PUBLIC "-//W3C//DTD SVG 1.1//EN"
"http://www.w3.org/Graphics/SVG/1.1/DTD/svg11.dtd">
<svg viewBox="0 0 935 1210" version="1.1" xmlns="http://www.w3.org/2000/svg" xmlns:xlink="http://www.w3.org/1999/xlink">
<defs>
<clipPath id="c0_1"><path d="M0,1210V0H935V1210Z"/></clipPath>
<style type="text/css"><![CDATA[
.g0_1{
fill: #000;
}
.g1_1{
fill: #FFF;
}
.g2_1{
fill: #A07F2E;
}
.g3_1{
fill: #9146FF;
}
]]></style>
</defs>
<image preserveAspectRatio="none" x="0" y="0" width="935" height="1210" xlink:href="img/1.jpg"/>
<g clip-path="url(#c0_1)" opacity="0.8" style="mix-blend-mode: multiply;">
<image x="45" y="795" width="65" height="65" xlink:href="shade/1.png"/>
</g>
<path d="M90.4,813.7C90.4,826,80.4,836,68,836C55.7,836,45.7,826,45.7,813.7c0,-12.4,10,-22.4,22.3,-22.4c12.4,0,22.4,10,22.4,22.4Z" class="g0_1"/>
<path d="M79.6,813.9l-4.2,4.3H71.1l-3.7,3.7v-3.7H62.6v-16h17ZM61.5,800.1l-5.3,5.3v19.1h6.4v5.4l5.3,-5.4h4.3L81.7,815V800.1Z" class="g1_1"/>
<path d="M74.3,805.9h2.1v6.4H74.3v-6.4Z" class="g1_1"/>
<path d="M68.4,805.9h2.2v6.4H68.4v-6.4Z" class="g1_1"/>
<g clip-path="url(#c0_1)" opacity="0.8" style="mix-blend-mode: multiply;">
<image x="78" y="824" width="30" height="30" xlink:href="shade/2.png"/>
</g>
<g clip-path="url(#c0_1)" opacity="0.8" style="mix-blend-mode: multiply;">
<image x="45" y="859" width="65" height="65" xlink:href="shade/3.png"/>
</g>
<path d="M90.4,877.9c0,12.4,-10,22.4,-22.4,22.4c-12.3,0,-22.3,-10,-22.3,-22.4c0,-12.3,10,-22.3,22.3,-22.3c12.4,0,22.4,10,22.4,22.3Z" class="g0_1"/>
<path d="M79.6,875.4c-.2,0,-.4,0,-.7,0c-2.5,0,-4.8,-1.3,-6.2,-3.4v11.5c0,4.7,-3.8,8.5,-8.5,8.5c-4.7,0,-8.5,-3.8,-8.5,-8.5c0,-4.7,3.8,-8.5,8.5,-8.5c.2,0,.4,0,.5,0v4.2c-.1,0,-.3,0,-.5,0c-2.4,0,-4.3,1.9,-4.3,4.3c0,2.4,1.9,4.3,4.3,4.3c2.4,0,4.5,-1.8,4.5,-4.2L68.8,864h4c.3,3.6,3.2,6.4,6.8,6.7v4.7Z" class="g1_1"/>
<g clip-path="url(#c0_1)" opacity="0.8" style="mix-blend-mode: multiply;">
<image x="45" y="923" width="65" height="65" xlink:href="shade/4.png"/>
</g>
<path d="M90.4,942.5c0,12.4,-10,22.4,-22.4,22.4c-12.3,0,-22.3,-10,-22.3,-22.4c0,-12.3,10,-22.3,22.3,-22.3c12.4,0,22.4,10,22.4,22.3Z" class="g0_1"/>
<path d="M80.4,934.9c-.8,.3,-1.7,.5,-2.5,.7c.4,-.1,1,-.8,1.2,-1.1c.4,-.4,.7,-.9,.8,-1.5c.1,0,.1,-.1,0,-.1c0,0,-.1,0,-.1,0c-.9,.5,-1.9,.9,-2.9,1.1c-.1,0,-.2,0,-.2,0c-.1,-.1,-.2,-.2,-.3,-.3c-.4,-.4,-.9,-.7,-1.4,-.9c-.7,-.2,-1.4,-.4,-2.2,-.3c-.7,0,-1.4,.2,-2,.6c-.7,.3,-1.2,.8,-1.7,1.3c-.4,.6,-.8,1.3,-1,2c-.1,.7,-.1,1.4,0,2.1q0,.1,-.1,.1c-4,-.6,-7.4,-2,-10.1,-5.1q-.1,-.1,-.2,0c-1.2,1.8,-.6,4.6,.8,6c.2,.2,.4,.4,.6,.6c0,0,-1,-.1,-1.9,-.6c-.1,0,-.2,0,-.2,.1c0,.2,0,.4,.1,.6c.2,1.8,1.4,3.5,3.1,4.1c.2,.1,.5,.2,.7,.2c-.4,.1,-.8,.2,-1.9,.1c-.2,-.1,-.2,0,-.2,.1c.9,2.3,2.7,3,4,3.4c.2,0,.4,0,.6,.1c0,0,-.1,0,-.1,0c-.4,.7,-2,1.2,-2.7,1.4c-1.3,.5,-2.7,.7,-4.1,.6q-.3,-.1,-.4,0c0,0,0,.1,.1,.1c.3,.2,.6,.4,.9,.5c.8,.5,1.8,.9,2.7,1.1c5,1.4,10.6,.4,14.3,-3.3c3,-2.9,4,-6.9,4,-11c0,-.1,.2,-.2,.3,-.3c.8,-.6,1.4,-1.3,1.9,-2c.2,-.2,.2,-.3,.2,-.4q0,-.1,-.1,0Z" class="g1_1"/>
<g clip-path="url(#c0_1)" opacity="0.8" style="mix-blend-mode: multiply;">
<image x="45" y="987" width="65" height="65" xlink:href="shade/5.png"/>
</g>
<path d="M91,1007c0,12.3,-10,22.3,-22.4,22.3c-12.3,0,-22.3,-10,-22.3,-22.3c0,-12.3,10,-22.3,22.3,-22.3c12.4,0,22.4,10,22.4,22.3Z" class="g0_1"/>
<path d="M72.5,1007.4l-6.1,3.1c-.3,.1,-1.1,-.1,-1.1,-.4v-6.2c0,-.3,.9,-.5,1.1,-.3l5.9,3.2c.2,.1,.5,.5,.2,.6m8.1,-3.6c0,-3,-2.4,-5.4,-5.4,-5.4H61.5c-2.9,0,-5.3,2.4,-5.3,5.4v6.3c0,3,2.4,5.4,5.3,5.4H75.2c3,0,5.4,-2.4,5.4,-5.4Z" class="g1_1"/>
<g clip-path="url(#c0_1)" opacity="0.8" style="mix-blend-mode: multiply;">
<image x="45" y="1052" width="65" height="65" xlink:href="shade/6.png"/>
</g>
<path d="M91,1071.1c0,12.3,-10,22.3,-22.4,22.3c-12.3,0,-22.3,-10,-22.3,-22.3c0,-12.4,10,-22.4,22.3,-22.4c12.4,0,22.4,10,22.4,22.4Z" class="g0_1"/>
<path d="M75.6,1062.6c-.9,0,-1.6,.7,-1.6,1.5c0,.9,.7,1.6,1.6,1.6c.8,0,1.5,-.7,1.5,-1.6c0,-.8,-.7,-1.5,-1.5,-1.5Z" class="g1_1"/>
<path d="M68.8,1075.2c-2.3,0,-4.2,-1.9,-4.2,-4.2c0,-2.2,1.9,-4.1,4.2,-4.1c2.2,0,4.1,1.9,4.1,4.1c0,2.3,-1.9,4.2,-4.1,4.2m0,-10.6c-3.6,0,-6.5,2.9,-6.5,6.4c0,3.6,2.9,6.5,6.5,6.5c3.5,0,6.4,-2.9,6.4,-6.5c0,-3.5,-2.9,-6.4,-6.4,-6.4Z" class="g1_1"/>
<path d="M63.4,1060.4c-3,0,-5.4,2.4,-5.4,5.4v10.5c0,2.9,2.4,5.4,5.4,5.4H73.9c3,0,5.4,-2.5,5.4,-5.4v-10.5c0,-3,-2.4,-5.4,-5.4,-5.4Zm10.5,23.7H63.4c-4.3,0,-7.9,-3.5,-7.9,-7.8v-10.5c0,-4.3,3.6,-7.9,7.9,-7.9H73.9c4.3,0,7.8,3.6,7.8,7.9v10.5c0,4.3,-3.5,7.8,-7.8,7.8Z" class="g1_1"/>
<g clip-path="url(#c0_1)" opacity="0.8" style="mix-blend-mode: multiply;">
<image x="45" y="1116" width="65" height="65" xlink:href="shade/7.png"/>
</g>
<path d="M91,1135.3c0,12.4,-10,22.4,-22.4,22.4c-12.3,0,-22.3,-10,-22.3,-22.4c0,-12.3,10,-22.3,22.3,-22.3c12.4,0,22.4,10,22.4,22.3Z" class="g0_1"/>
<image preserveAspectRatio="none" x="53" y="1120" width="31" height="35" xlink:href="img/2.png"/>
<path d="M326.3,1143.7l-2.4,2.4h-2.5l-2.1,2.2v-2.2h-2.8v-9.2h9.8Zm-10.4,-8l-3.1,3.1v11h3.7v3l3.1,-3H322l5.5,-5.5v-8.6Z" class="g2_1"/>
<path d="M323.2,1139.1h1.3v3.6h-1.3v-3.6Z" class="g2_1"/>
<path d="M319.9,1139.1h1.2v3.6h-1.2v-3.6Z" class="g2_1"/>
<path d="M361.3,1141.1c-.2,.1,-.3,.1,-.4,.1c-1.5,0,-2.8,-.8,-3.6,-2v6.6c0,2.7,-2.2,4.9,-4.9,4.9c-2.7,0,-4.9,-2.2,-4.9,-4.9c0,-2.7,2.2,-4.9,4.9,-4.9c.1,0,.2,.1,.3,.1v2.4c-.1,0,-.2,-.1,-.3,-.1c-1.4,0,-2.5,1.2,-2.5,2.5c0,1.4,1.1,2.5,2.5,2.5c1.3,0,2.6,-1,2.6,-2.4v-11.3h2.3c.2,2.1,1.9,3.7,4,3.9v2.6Z" class="g2_1"/>
<path d="M395.5,1138.3c-.4,.2,-.9,.3,-1.4,.4c.2,0,.6,-.5,.7,-.6c.2,-.3,.4,-.6,.5,-.9v-.1q-.1,0,-.1,0c-.6,.3,-1.1,.5,-1.7,.7c0,0,-.1,0,-.1,0q-.1,-.1,-.2,-.2c-.2,-.2,-.5,-.4,-.8,-.5c-.4,-.1,-.8,-.2,-1.2,-.2c-.4,0,-.8,.2,-1.2,.3c-.4,.2,-.7,.5,-1,.8c-.2,.4,-.4,.8,-.5,1.2c-.1,.4,-.1,.8,-.1,1.2c0,0,0,.1,0,0c-2.3,-.3,-4.3,-1.1,-5.8,-2.9q-.1,-.1,-.2,0c-.7,1,-.3,2.7,.5,3.5c.1,.1,.3,.2,.4,.3c-.1,0,-.6,-.1,-1.1,-.3c-.1,-.1,-.1,0,-.1,0c0,.1,0,.2,0,.4c.1,1,.8,2,1.8,2.3c.1,.1,.2,.1,.4,.1c-.2,.1,-.5,.1,-1.1,.1q-.1,0,-.1,.1c.5,1.3,1.5,1.7,2.3,1.9c.1,0,.2,0,.3,0q0,.1,0,.1c-.3,.4,-1.2,.7,-1.6,.8c-.7,.3,-1.6,.4,-2.4,.3q-.1,0,-.1,0c-.1,0,-.1,.1,0,.1c.1,.1,.3,.2,.5,.3c.5,.3,1,.5,1.6,.6c2.8,.8,6.1,.2,8.2,-1.9c1.7,-1.7,2.3,-4,2.3,-6.3c0,-.1,.1,-.2,.2,-.2c.4,-.3,.8,-.7,1.1,-1.2c.1,-.1,.1,-.2,.1,-.2h-.1Z" class="g2_1"/>
<path d="M425.1,1143l-3.5,1.7c-.2,.1,-.6,0,-.6,-.2v-3.6c0,-.1,.5,-.2,.6,-.2l3.4,1.9c.1,.1,.3,.3,.1,.4m4.7,-2.2c0,-1.7,-1.4,-3,-3.1,-3h-7.9c-1.7,0,-3.1,1.3,-3.1,3v3.7c0,1.7,1.4,3.1,3.1,3.1h7.9c1.7,0,3.1,-1.4,3.1,-3.1Z" class="g2_1"/>
<path d="M460.9,1137.8c-.5,0,-.9,.4,-.9,.9c0,.5,.4,.9,.9,.9c.5,0,.9,-.4,.9,-.9c0,-.5,-.4,-.9,-.9,-.9Z" class="g2_1"/>
<path d="M457,1145.1c-1.3,0,-2.4,-1.1,-2.4,-2.4c0,-1.3,1.1,-2.4,2.4,-2.4c1.3,0,2.4,1.1,2.4,2.4c0,1.3,-1.1,2.4,-2.4,2.4m0,-6.1c-2.1,0,-3.7,1.6,-3.7,3.7c0,2,1.6,3.7,3.7,3.7c2,0,3.7,-1.7,3.7,-3.7c0,-2.1,-1.7,-3.7,-3.7,-3.7Z" class="g2_1"/>
<path d="M453.9,1136.6c-1.7,0,-3.1,1.4,-3.1,3.1v6c0,1.7,1.4,3.1,3.1,3.1h6c1.7,0,3.1,-1.4,3.1,-3.1v-6c0,-1.7,-1.4,-3.1,-3.1,-3.1Zm6,13.6h-6c-2.5,0,-4.5,-2,-4.5,-4.5v-6c0,-2.5,2,-4.6,4.5,-4.6h6c2.5,0,4.6,2.1,4.6,4.6v6c0,2.5,-2.1,4.5,-4.6,4.5Z" class="g2_1"/>
<path d="M494.1,1146c-.9,0,-1.7,-.9,-1.7,-1.9c0,-1,.8,-1.9,1.7,-1.9c.9,0,1.6,.9,1.6,1.9c0,1,-.7,1.9,-1.6,1.9m-6,0c-.9,0,-1.6,-.9,-1.6,-1.9c0,-1,.7,-1.9,1.6,-1.9c1,0,1.7,.9,1.7,1.9c0,1,-.7,1.9,-1.7,1.9m9.2,-8.3c-1.5,-.8,-3.8,-1.1,-3.8,-1.1l-.4,.9c-.7,-.1,-1.4,-.1,-2,-.1c-.6,0,-1.3,0,-2,.1l-.4,-.9c0,0,-2.2,.3,-3.7,1.1c0,0,-3.2,2.9,-2.7,10.2c0,0,1.9,1.6,4.5,2.3l1,-1.5c0,0,-1.2,-.6,-1.4,-.7l.2,-.4c0,0,1.7,1.1,4.5,1.1c2.8,0,4.5,-1.1,4.5,-1.1l.3,.4c-.2,.1,-1.4,.7,-1.4,.7l1,1.5c2.6,-.7,4.5,-2.3,4.5,-2.3c.5,-7.3,-2.7,-10.2,-2.7,-10.2Z" class="g2_1"/>
<path d="M90.6,821.5l-8.3,3.4l-3.6,8.3l3.4,8.3l8.3,3.6l8.4,-3.4l3.5,-8.3L98.9,825Z" class="g3_1"/>
<path d="M84.4,834.9L86.2,833l2.2,1.9l6,-6.4l2,1.8l-8,8.4Z" class="g1_1"/>
</svg>