<?xml version="1.0" encoding="UTF-8" standalone="no"?>
<!DOCTYPE svg PUBLIC "-//W3C//DTD SVG 1.1//EN"
"http://www.w3.org/Graphics/SVG/1.1/DTD/svg11.dtd">
<svg viewBox="0 0 935 1210" version="1.1" xmlns="http://www.w3.org/2000/svg" xmlns:xlink="http://www.w3.org/1999/xlink">
<defs>
<clipPath id="c0_2"><path d="M0,1210V0H935V1210Z"/></clipPath>
<clipPath id="c1_2"><path d="M475.7,1104V868H895.9v236Z"/></clipPath>
<clipPath id="c2_2"><path d="M474.9,316.8V80.7H895.1V316.8Z"/></clipPath>
<clipPath id="c3_2"><path d="M474.1,856.5V619.9H895.9V856.5Z"/></clipPath>
<clipPath id="c4_2"><path d="M45.8,856.5V619.8H467.2V856.5Z"/></clipPath>
<style type="text/css"><![CDATA[
.g0_2{
fill: #000;
}
.g1_2{
fill: #FFF;
}
.g2_2{
fill: #A07F2E;
}
]]></style>
</defs>
<image preserveAspectRatio="none" x="0" y="0" width="935" height="1210" xlink:href="img/1.jpg"/>
<g clip-path="url(#c0_2)" opacity="0.8" style="mix-blend-mode: multiply;">
<image x="45" y="384" width="65" height="65" xlink:href="shade/1.png"/>
</g>
<path d="M91,403.2c0,12.3,-10,22.3,-22.3,22.3c-12.4,0,-22.4,-10,-22.4,-22.3c0,-12.3,10,-22.3,22.4,-22.3c12.3,0,22.3,10,22.3,22.3Z" class="g0_2"/>
<path d="M80.3,403.4L76,407.7H71.7L68,411.4v-3.7H63.2V391.8H80.3ZM62.2,389.6l-5.3,5.3v19.2h6.3v5.3l5.4,-5.3h4.2l9.6,-9.6V389.6Z" class="g1_2"/>
<path d="M74.9,395.5h2.2v6.4H74.9v-6.4Z" class="g1_2"/>
<path d="M69.1,395.5h2.1v6.4H69.1v-6.4Z" class="g1_2"/>
<g clip-path="url(#c0_2)" opacity="0.8" style="mix-blend-mode: multiply;">
<image x="301" y="384" width="65" height="65" xlink:href="shade/2.png"/>
</g>
<path d="M346.9,403.2c0,12.3,-10,22.3,-22.3,22.3c-12.3,0,-22.3,-10,-22.3,-22.3c0,-12.3,10,-22.3,22.3,-22.3c12.3,0,22.3,10,22.3,22.3Z" class="g0_2"/>
<path d="M336.2,400.6c-.2,0,-.5,.1,-.7,.1c-2.5,0,-4.9,-1.3,-6.2,-3.4v11.5c0,4.7,-3.8,8.5,-8.5,8.5c-4.7,0,-8.5,-3.8,-8.5,-8.5c0,-4.7,3.8,-8.5,8.5,-8.5c.1,0,.3,0,.5,0v4.2c-.2,0,-.4,-.1,-.5,-.1c-2.4,0,-4.4,2,-4.4,4.4c0,2.4,2,4.3,4.4,4.3c2.4,0,4.5,-1.9,4.5,-4.3V389.3h4c.4,3.6,3.3,6.4,6.9,6.7v4.6Z" class="g1_2"/>
<image preserveAspectRatio="none" x="46" y="868" width="421" height="236" xlink:href="img/2.jpg"/>
<image clip-path="url(#c1_2)" preserveAspectRatio="none" x="476" y="868" width="420" height="236" xlink:href="img/3.jpg"/>
<image clip-path="url(#c2_2)" preserveAspectRatio="none" x="475" y="81" width="420" height="236" xlink:href="img/4.jpg"/>
<image clip-path="url(#c3_2)" preserveAspectRatio="none" x="474" y="620" width="422" height="237" xlink:href="img/5.jpg"/>
<image clip-path="url(#c4_2)" preserveAspectRatio="none" x="46" y="620" width="421" height="237" xlink:href="img/6.jpg"/>
<path d="M226.2,1143.7l-2.5,2.4h-2.4l-2.2,2.2v-2.2h-2.7v-9.2h9.8Zm-10.5,-8l-3,3.1v11h3.7v3l3,-3h2.5l5.5,-5.5v-8.6Z" class="g2_2"/>
<path d="M223.1,1139.1h1.2v3.6h-1.2v-3.6Z" class="g2_2"/>
<path d="M219.7,1139.1h1.2v3.6h-1.2v-3.6Z" class="g2_2"/>
<path d="M276.4,1141.1c-.1,.1,-.3,.1,-.4,.1c-1.5,0,-2.8,-.8,-3.6,-2v6.6c0,2.7,-2.2,4.9,-4.9,4.9c-2.7,0,-4.9,-2.2,-4.9,-4.9c0,-2.7,2.2,-4.9,4.9,-4.9c.1,0,.2,.1,.3,.1v2.4c-.1,0,-.2,-.1,-.3,-.1c-1.4,0,-2.5,1.2,-2.5,2.5c0,1.4,1.1,2.5,2.5,2.5c1.4,0,2.6,-1,2.6,-2.4v-11.3h2.3c.2,2.1,1.9,3.7,4,3.9v2.6Z" class="g2_2"/>
<path d="M325.9,1138.3c-.4,.2,-.9,.3,-1.4,.4c.2,0,.6,-.5,.7,-.6c.2,-.3,.4,-.6,.5,-.9v-.1q-.1,0,-.1,0c-.6,.3,-1.1,.5,-1.7,.7c0,0,-.1,0,-.1,0q-.1,-.1,-.2,-.2c-.2,-.2,-.5,-.4,-.8,-.5c-.4,-.1,-.8,-.2,-1.2,-.2c-.4,0,-.8,.2,-1.2,.3c-.4,.2,-.7,.5,-1,.8c-.2,.4,-.4,.8,-.5,1.2c-.1,.4,-.1,.8,-.1,1.2c0,0,0,.1,0,0c-2.3,-.3,-4.3,-1.1,-5.8,-2.9q-.1,-.1,-.2,0c-.7,1,-.3,2.7,.5,3.5c.1,.1,.3,.2,.4,.3c-.1,0,-.6,-.1,-1.1,-.3c-.1,-.1,-.1,0,-.1,0c0,.1,0,.2,0,.4c.1,1,.8,2,1.8,2.3c.1,.1,.3,.1,.4,.1c-.2,.1,-.5,.1,-1.1,.1q-.1,0,-.1,.1c.5,1.3,1.5,1.7,2.3,1.9c.1,0,.2,0,.3,0q0,.1,0,.1c-.3,.4,-1.2,.7,-1.6,.8c-.7,.3,-1.6,.4,-2.4,.3q-.1,0,-.1,0c-.1,0,-.1,.1,0,.1c.2,.1,.3,.2,.5,.3c.5,.3,1,.5,1.6,.6c2.8,.8,6.1,.2,8.2,-1.9c1.7,-1.7,2.3,-4,2.3,-6.3c0,-.1,.1,-.2,.2,-.2c.4,-.3,.8,-.7,1.1,-1.2c.1,-.1,.1,-.2,.1,-.2h-.1Z" class="g2_2"/>
<path d="M370.8,1143l-3.5,1.7c-.2,.1,-.6,0,-.6,-.2v-3.6c0,-.1,.4,-.2,.6,-.2l3.4,1.9c.1,.1,.3,.3,.1,.4m4.7,-2.2c0,-1.7,-1.4,-3,-3.1,-3h-7.9c-1.7,0,-3.1,1.3,-3.1,3v3.7c0,1.7,1.4,3.1,3.1,3.1h7.9c1.7,0,3.1,-1.4,3.1,-3.1Z" class="g2_2"/>
<path d="M421.9,1137.8c-.5,0,-.9,.4,-.9,.9c0,.5,.4,.9,.9,.9c.5,0,.9,-.4,.9,-.9c0,-.5,-.4,-.9,-.9,-.9Z" class="g2_2"/>
<path d="M417.9,1145.1c-1.3,0,-2.3,-1.1,-2.3,-2.4c0,-1.3,1,-2.4,2.3,-2.4c1.4,0,2.4,1.1,2.4,2.4c0,1.3,-1,2.4,-2.4,2.4m0,-6.1c-2,0,-3.7,1.6,-3.7,3.7c0,2,1.7,3.7,3.7,3.7c2.1,0,3.8,-1.7,3.8,-3.7c0,-2.1,-1.7,-3.7,-3.8,-3.7Z" class="g2_2"/>
<path d="M414.9,1136.6c-1.8,0,-3.1,1.4,-3.1,3.1v6c0,1.7,1.3,3.1,3.1,3.1h6c1.7,0,3.1,-1.4,3.1,-3.1v-6c0,-1.7,-1.4,-3.1,-3.1,-3.1Zm6,13.6h-6c-2.5,0,-4.6,-2,-4.6,-4.5v-6c0,-2.5,2.1,-4.6,4.6,-4.6h6c2.5,0,4.5,2.1,4.5,4.6v6c0,2.5,-2,4.5,-4.5,4.5Z" class="g2_2"/>
<path d="M470.3,1146c-.9,0,-1.6,-.9,-1.6,-1.9c0,-1,.7,-1.9,1.6,-1.9c.9,0,1.7,.9,1.7,1.9c0,1,-.8,1.9,-1.7,1.9m-5.9,0c-.9,0,-1.7,-.9,-1.7,-1.9c0,-1,.8,-1.9,1.7,-1.9c.9,0,1.6,.9,1.6,1.9c0,1,-.7,1.9,-1.6,1.9m9.1,-8.3c-1.4,-.8,-3.7,-1.1,-3.7,-1.1l-.4,.9c-.7,-.1,-1.4,-.1,-2,-.1c-.6,0,-1.3,0,-2,.1l-.4,-.9c0,0,-2.3,.3,-3.8,1.1c0,0,-3.2,2.9,-2.7,10.2c0,0,1.9,1.6,4.5,2.3l1,-1.5c0,0,-1.2,-.6,-1.4,-.7l.3,-.4c0,0,1.7,1.1,4.5,1.1c2.8,0,4.5,-1.1,4.5,-1.1l.2,.4c-.2,.1,-1.4,.7,-1.4,.7l1,1.5c2.7,-.7,4.5,-2.3,4.5,-2.3c.5,-7.3,-2.7,-10.2,-2.7,-10.2Z" class="g2_2"/>
</svg>